<?xml version="1.0" encoding="UTF-8" standalone="no"?>
<!-- Generator: Adobe Illustrator 23.0.3, SVG Export Plug-In . SVG Version: 6.00 Build 0)  -->

<svg
   version="1.1"
   id="Layer_1"
   x="0px"
   y="0px"
   viewBox="0 0 300 300"
   xml:space="preserve"
   width="300"
   height="300"
   xmlns="http://www.w3.org/2000/svg"
   xmlns:svg="http://www.w3.org/2000/svg"><defs
   id="defs12" />
<style
   type="text/css"
   id="style2">
	.st0{fill:#1977F3;}
	.st1{fill:#FEFEFE;}
</style>
<g
   id="Layer_x0020_1"
   transform="scale(0.29296875)">
	<path
   class="st0"
   d="M 1024,512 C 1024,229.3 794.7,0 512,0 229.3,0 0,229.3 0,512 0,767.5 187.2,979.4 432,1017.8 V 660 H 302 V 512 H 432 V 399.2 C 432,270.9 508.5,200 625.4,200 c 56,0 114.6,10 114.6,10 v 126 h -64.6 c -63.6,0 -83.4,39.5 -83.4,80 v 96 H 734 L 711.3,660 H 592 v 357.8 C 836.8,979.4 1024,767.6 1024,512 Z"
   id="path4" />
	<path
   class="st1"
   d="M 711.3,660 734,512 H 592 v -96 c 0,-40.5 19.8,-80 83.4,-80 H 740 V 210 c 0,0 -58.6,-10 -114.6,-10 C 508.5,200 432,270.8 432,399.2 V 512 H 302 v 148 h 130 v 357.8 c 26.1,4.1 52.8,6.2 80,6.2 27.2,0 53.9,-2.2 80,-6.2 V 660 Z"
   id="path6" />
</g>
</svg>
