<?xml version="1.0" encoding="UTF-8" standalone="no"?>
<svg
   width="300"
   height="300"
   viewBox="0 0 300 300"
   fill="none"
   version="1.1"
   id="svg13"
   xmlns="http://www.w3.org/2000/svg"
   xmlns:svg="http://www.w3.org/2000/svg">
  <g
     clip-path="url(#clip0)"
     id="g6"
     transform="matrix(4.6875001,0,0,4.6875001,-1.8745392,-3.2e-6)">
    <path
       d="m 32.3999,64 c 17.6731,0 32,-14.3269 32,-32 0,-17.6731 -14.3269,-32 -32,-32 C 14.7268,0 0.399902,14.3269 0.399902,32 c 0,17.6731 14.326898,32 31.999998,32 z"
       fill="#3375bb"
       id="path2" />
    <path
       d="m 32.6267,14 c 6.3241,5.2816 13.5762,4.9559 15.6483,4.9559 C 47.8217,48.9937 44.3683,43.0373 32.6267,51.46 20.8851,43.0373 17.4533,48.9937 17,18.9559 c 2.0505,0 9.3026,0.3257 15.6267,-4.9559 z"
       stroke="#ffffff"
       stroke-width="4"
       stroke-miterlimit="10"
       stroke-linecap="round"
       stroke-linejoin="round"
       id="path4" />
  </g>
  <defs
     id="defs11">
    <clipPath
       id="clip0">
      <rect
         width="64"
         height="64"
         fill="#ffffff"
         transform="translate(0.399902)"
         id="rect8"
         x="0"
         y="0" />
    </clipPath>
  </defs>
</svg>
